<svg width="36" height="36" viewBox="0 0 36 36" fill="none" xmlns="http://www.w3.org/2000/svg">
<path d="M31.0523 32.6137C31.0523 30.7436 25.2186 29.2278 18.0222 29.2278C10.8259 29.2278 4.99219 30.7436 4.99219 32.6137C4.99219 34.4839 10.8259 36 18.0222 36C25.2186 36 31.0523 34.4839 31.0523 32.6137V32.6137Z" fill="#E34B4C"/>
<path d="M26.2738 3.67795C24.1817 1.35159 21.1512 0 18.0223 0C14.8933 0 11.863 1.35159 9.7707 3.67795C4.40443 9.64407 7.12849 18.5301 10.8369 24.4976C12.848 27.7339 15.3325 30.6631 18.0223 33.3531C20.712 30.6631 23.1965 27.7339 25.2079 24.4976C28.916 18.5301 31.6401 9.64407 26.2738 3.67795V3.67795Z" fill="#FD6F71"/>
<path d="M26.7874 11.155C26.7874 15.9958 22.8631 19.9201 18.0222 19.9201C13.1814 19.9201 9.25708 15.9958 9.25708 11.155C9.25708 6.31412 13.1814 2.3898 18.0222 2.3898C22.8631 2.3898 26.7874 6.31412 26.7874 11.155V11.155Z" fill="#EFEDEE"/>
<path d="M18.0225 7.39078C14.89 7.39078 12.3508 8.53116 12.3508 11.7254C12.3508 14.92 14.89 17.5089 18.0225 17.5089C21.1544 17.5089 23.6934 14.92 23.6934 11.7254C23.6934 8.53116 21.1544 7.39078 18.0225 7.39078V7.39078Z" fill="#FBC4AC"/>
<path d="M21.0454 13.1314C20.7452 13.1314 20.5021 12.8881 20.5021 12.5881V12.0004C20.5021 11.7002 20.7452 11.4571 21.0454 11.4571C21.3453 11.4571 21.5887 11.7002 21.5887 12.0004V12.5881C21.5887 12.8881 21.3453 13.1314 21.0454 13.1314Z" fill="#3A484A"/>
<path d="M14.9991 13.1314C14.6992 13.1314 14.4558 12.8881 14.4558 12.5881V12.0004C14.4558 11.7002 14.6992 11.4571 14.9991 11.4571C15.299 11.4571 15.5424 11.7002 15.5424 12.0004V12.5881C15.5424 12.8881 15.299 13.1314 14.9991 13.1314Z" fill="#3A484A"/>
<path d="M18.0223 14.0543C17.4925 14.0543 16.9945 13.8324 16.6561 13.4451C16.4586 13.2193 16.4817 12.876 16.7075 12.6785C16.9335 12.481 17.2766 12.5041 17.4741 12.7299C17.6062 12.8809 17.8058 12.9677 18.0223 12.9677C18.2384 12.9677 18.4384 12.8809 18.5705 12.7299C18.768 12.5041 19.111 12.481 19.3371 12.6785C19.5628 12.876 19.5859 13.2193 19.3884 13.4451C19.05 13.8324 18.5521 14.0543 18.0223 14.0543Z" fill="#3A484A"/>
<path d="M23.422 9.95305C23.0326 5.2119 21.1209 5.94194 18.0225 5.94194C15.6802 5.94194 14.5552 5.70738 14.076 5.55769C13.8845 5.49809 13.6783 5.58433 13.5871 5.76313C13.2045 6.51378 12.3508 8.54487 12.3508 11.7254C12.3508 11.7254 13.7074 9.28261 18.0225 9.28261C20.0297 9.28288 19.8619 9.95305 23.422 9.95305Z" fill="#C86D5C"/>
</svg>
